<?xml version="1.0" encoding="UTF-8" standalone="no"?><svg xmlns="http://www.w3.org/2000/svg" xmlns:xlink="http://www.w3.org/1999/xlink" contentStyleType="text/css" height="598px" preserveAspectRatio="none" style="width:614px;height:598px;background:#FFFFFF;" version="1.1" viewBox="0 0 614 598" width="614px" zoomAndPan="magnify"><defs/><g><rect fill="#F1F1F1" height="37.6094" rx="12.5" ry="12.5" style="stroke:#181818;stroke-width:1.5;" width="66" x="10" y="279.2422"/><text fill="#000000" font-family="sans-serif" font-size="14" lengthAdjust="spacing" textLength="46" x="20" y="303.7754">System</text><rect fill="#F1F1F1" height="37.6094" rx="12.5" ry="12.5" style="stroke:#181818;stroke-width:1.5;" width="38" x="126" y="20"/><text fill="#000000" font-family="sans-serif" font-size="14" lengthAdjust="spacing" textLength="18" x="136" y="44.5332">Git</text><path d="M76,298.0469 L86,298.0469 C101,298.0469 101,38.8047 116,38.8047 L126,38.8047 " fill="none" style="stroke:#181818;stroke-width:1.0;"/><rect fill="#F1F1F1" height="37.6094" rx="12.5" ry="12.5" style="stroke:#181818;stroke-width:1.5;" width="70" x="126" y="77.6094"/><text fill="#000000" font-family="sans-serif" font-size="14" lengthAdjust="spacing" textLength="50" x="136" y="102.1426">.NET c#</text><path d="M76,298.0469 L86,298.0469 C101,298.0469 101,96.4141 116,96.4141 L126,96.4141 " fill="none" style="stroke:#181818;stroke-width:1.0;"/><rect fill="#F1F1F1" height="37.6094" rx="12.5" ry="12.5" style="stroke:#181818;stroke-width:1.5;" width="65" x="126" y="135.2188"/><text fill="#000000" font-family="sans-serif" font-size="14" lengthAdjust="spacing" textLength="45" x="136" y="159.752">Docker</text><path d="M76,298.0469 L86,298.0469 C101,298.0469 101,154.0234 116,154.0234 L126,154.0234 " fill="none" style="stroke:#181818;stroke-width:1.0;"/><rect fill="#F1F1F1" height="37.6094" rx="12.5" ry="12.5" style="stroke:#181818;stroke-width:1.5;" width="106" x="126" y="192.8281"/><text fill="#000000" font-family="sans-serif" font-size="14" lengthAdjust="spacing" textLength="86" x="136" y="217.3613">dev container</text><path d="M76,298.0469 L86,298.0469 C101,298.0469 101,211.6328 116,211.6328 L126,211.6328 " fill="none" style="stroke:#181818;stroke-width:1.0;"/><rect fill="#F1F1F1" height="37.6094" rx="12.5" ry="12.5" style="stroke:#181818;stroke-width:1.5;" width="74" x="126" y="308.0469"/><text fill="#000000" font-family="sans-serif" font-size="14" lengthAdjust="spacing" textLength="54" x="136" y="332.5801">Services</text><rect fill="#F1F1F1" height="37.6094" rx="12.5" ry="12.5" style="stroke:#181818;stroke-width:1.5;" width="56" x="250" y="250.4375"/><text fill="#000000" font-family="sans-serif" font-size="14" lengthAdjust="spacing" textLength="36" x="260" y="274.9707">Azure</text><text fill="#000000" font-family="sans-serif" font-size="14" lengthAdjust="spacing" textLength="84" x="359" y="265.166">App Function</text><path d="M306,269.2422 L316,269.2422 C331,269.2422 331,259.4375 346,259.4375 L356,259.4375 " fill="none" style="stroke:#181818;stroke-width:1.0;"/><text fill="#000000" font-family="sans-serif" font-size="14" lengthAdjust="spacing" textLength="90" x="359" y="284.7754">Static Website</text><path d="M306,269.2422 L316,269.2422 C331,269.2422 331,279.0469 346,279.0469 L356,279.0469 " fill="none" style="stroke:#181818;stroke-width:1.0;"/><path d="M200,326.8516 L210,326.8516 C225,326.8516 225,269.2422 240,269.2422 L250,269.2422 " fill="none" style="stroke:#181818;stroke-width:1.0;"/><rect fill="#F1F1F1" height="37.6094" rx="12.5" ry="12.5" style="stroke:#181818;stroke-width:1.5;" width="85" x="250" y="308.0469"/><a href="https://mailchimp.com" target="_top" title="https://mailchimp.com" xlink:actuate="onRequest" xlink:href="https://mailchimp.com" xlink:show="new" xlink:title="https://mailchimp.com" xlink:type="simple"><text fill="#0000FF" font-family="sans-serif" font-size="14" lengthAdjust="spacing" text-decoration="underline" textLength="65" x="260" y="332.5801">MailChimp</text></a><a href="https://us8.admin.mailchimp.com/account/client-key/" target="_top" title="https://us8.admin.mailchimp.com/account/client-key/" xlink:actuate="onRequest" xlink:href="https://us8.admin.mailchimp.com/account/client-key/" xlink:show="new" xlink:title="https://us8.admin.mailchimp.com/account/client-key/" xlink:type="simple"><text fill="#0000FF" font-family="sans-serif" font-size="14" lengthAdjust="spacing" text-decoration="underline" textLength="214" x="388" y="332.5801">Api key - Free (1000 mails/month)</text></a><path d="M335,326.8516 L345,326.8516 C360,326.8516 360,326.8516 375,326.8516 L385,326.8516 " fill="none" style="stroke:#181818;stroke-width:1.0;"/><path d="M200,326.8516 L210,326.8516 C225,326.8516 225,326.8516 240,326.8516 L250,326.8516 " fill="none" style="stroke:#181818;stroke-width:1.0;"/><rect fill="#F1F1F1" height="37.6094" rx="12.5" ry="12.5" style="stroke:#181818;stroke-width:1.5;" width="62" x="250" y="365.6563"/><text fill="#000000" font-family="sans-serif" font-size="14" lengthAdjust="spacing" textLength="42" x="260" y="390.1895">Github</text><rect fill="#F1F1F1" height="37.6094" rx="12.5" ry="12.5" style="stroke:#181818;stroke-width:1.5;" width="111" x="362" y="365.6563"/><text fill="#000000" font-family="sans-serif" font-size="14" lengthAdjust="spacing" textLength="91" x="372" y="390.1895">Github actions</text><path d="M312,384.4609 L322,384.4609 C337,384.4609 337,384.4609 352,384.4609 L362,384.4609 " fill="none" style="stroke:#181818;stroke-width:1.0;"/><path d="M200,326.8516 L210,326.8516 C225,326.8516 225,384.4609 240,384.4609 L250,384.4609 " fill="none" style="stroke:#181818;stroke-width:1.0;"/><path d="M76,298.0469 L86,298.0469 C101,298.0469 101,326.8516 116,326.8516 L126,326.8516 " fill="none" style="stroke:#181818;stroke-width:1.0;"/><rect fill="#F1F1F1" height="37.6094" rx="12.5" ry="12.5" style="stroke:#181818;stroke-width:1.5;" width="51" x="126" y="423.2656"/><text fill="#000000" font-family="sans-serif" font-size="14" lengthAdjust="spacing" textLength="31" x="136" y="447.7988">Build</text><rect fill="#F1F1F1" height="37.6094" rx="12.5" ry="12.5" style="stroke:#181818;stroke-width:1.5;" width="87" x="227" y="423.2656"/><a href="https://nuke.build/" target="_top" title="https://nuke.build/" xlink:actuate="onRequest" xlink:href="https://nuke.build/" xlink:show="new" xlink:title="https://nuke.build/" xlink:type="simple"><text fill="#0000FF" font-family="sans-serif" font-size="14" lengthAdjust="spacing" text-decoration="underline" textLength="67" x="237" y="447.7988">Nuke Build</text></a><path d="M177,442.0703 L187,442.0703 C202,442.0703 202,442.0703 217,442.0703 L227,442.0703 " fill="none" style="stroke:#181818;stroke-width:1.0;"/><path d="M76,298.0469 L86,298.0469 C101,298.0469 101,442.0703 116,442.0703 L126,442.0703 " fill="none" style="stroke:#181818;stroke-width:1.0;"/><rect fill="#F1F1F1" height="37.6094" rx="12.5" ry="12.5" style="stroke:#181818;stroke-width:1.5;" width="41" x="126" y="480.875"/><text fill="#000000" font-family="sans-serif" font-size="14" lengthAdjust="spacing" textLength="21" x="136" y="505.4082">IaC</text><rect fill="#F1F1F1" height="37.6094" rx="12.5" ry="12.5" style="stroke:#181818;stroke-width:1.5;" width="62" x="217" y="480.875"/><a href="https://www.pulumi.com/" target="_top" title="https://www.pulumi.com/" xlink:actuate="onRequest" xlink:href="https://www.pulumi.com/" xlink:show="new" xlink:title="https://www.pulumi.com/" xlink:type="simple"><text fill="#0000FF" font-family="sans-serif" font-size="14" lengthAdjust="spacing" text-decoration="underline" textLength="42" x="227" y="505.4082">Pulumi</text></a><a href="https://www.pulumi.com/registry/packages/azure/api-docs/appservice/functionapp/" target="_top" title="https://www.pulumi.com/registry/packages/azure/api-docs/appservice/functionapp/" xlink:actuate="onRequest" xlink:href="https://www.pulumi.com/registry/packages/azure/api-docs/appservice/functionapp/" xlink:show="new" xlink:title="https://www.pulumi.com/registry/packages/azure/api-docs/appservice/functionapp/" xlink:type="simple"><text fill="#0000FF" font-family="sans-serif" font-size="14" lengthAdjust="spacing" text-decoration="underline" textLength="84" x="332" y="495.6035">App Function</text></a><path d="M279,499.6797 L289,499.6797 C304,499.6797 304,489.875 319,489.875 L329,489.875 " fill="none" style="stroke:#181818;stroke-width:1.0;"/><a href="https://www.pulumi.com/templates/static-website/azure/" target="_top" title="https://www.pulumi.com/templates/static-website/azure/" xlink:actuate="onRequest" xlink:href="https://www.pulumi.com/templates/static-website/azure/" xlink:show="new" xlink:title="https://www.pulumi.com/templates/static-website/azure/" xlink:type="simple"><text fill="#0000FF" font-family="sans-serif" font-size="14" lengthAdjust="spacing" text-decoration="underline" textLength="90" x="332" y="515.2129">Static Website</text></a><path d="M279,499.6797 L289,499.6797 C304,499.6797 304,509.4844 319,509.4844 L329,509.4844 " fill="none" style="stroke:#181818;stroke-width:1.0;"/><path d="M167,499.6797 L177,499.6797 C192,499.6797 192,499.6797 207,499.6797 L217,499.6797 " fill="none" style="stroke:#181818;stroke-width:1.0;"/><path d="M76,298.0469 L86,298.0469 C101,298.0469 101,499.6797 116,499.6797 L126,499.6797 " fill="none" style="stroke:#181818;stroke-width:1.0;"/><rect fill="#F1F1F1" height="37.6094" rx="12.5" ry="12.5" style="stroke:#181818;stroke-width:1.5;" width="115" x="126" y="538.4844"/><text fill="#000000" font-family="sans-serif" font-size="14" lengthAdjust="spacing" textLength="95" x="136" y="563.0176">Documentation</text><text fill="#000000" font-family="sans-serif" font-size="14" lengthAdjust="spacing" textLength="21" x="294" y="553.2129">MD</text><path d="M241,557.2891 L251,557.2891 C266,557.2891 266,547.4844 281,547.4844 L291,547.4844 " fill="none" style="stroke:#181818;stroke-width:1.0;"/><a href="https://plantuml.com/" target="_top" title="https://plantuml.com/" xlink:actuate="onRequest" xlink:href="https://plantuml.com/" xlink:show="new" xlink:title="https://plantuml.com/" xlink:type="simple"><text fill="#0000FF" font-family="sans-serif" font-size="14" lengthAdjust="spacing" text-decoration="underline" textLength="54" x="294" y="572.8223">Plantuml</text></a><path d="M241,557.2891 L251,557.2891 C266,557.2891 266,567.0938 281,567.0938 L291,567.0938 " fill="none" style="stroke:#181818;stroke-width:1.0;"/><path d="M76,298.0469 L86,298.0469 C101,298.0469 101,557.2891 116,557.2891 L126,557.2891 " fill="none" style="stroke:#181818;stroke-width:1.0;"/><!--MD5=[bc4f6a6e95a0ea1f83bfd9f73de05613]
@startmindmap "System overview"
* System
** Git
** .NET c#
** Docker
** dev container
** Services
*** Azure
****_ App Function
****_ Static Website
*** [[https://mailchimp.com MailChimp]]
****_ [[https://us8.admin.mailchimp.com/account/client-key/ Api key - Free (1000 mails/month)]]
*** Github
**** Github actions
** Build
*** [[https://nuke.build/ Nuke Build]]
** IaC
*** [[https://www.pulumi.com/ Pulumi]]
****_ [[https://www.pulumi.com/registry/packages/azure/api-docs/appservice/functionapp/ App Function]]
****_ [[https://www.pulumi.com/templates/static-website/azure/ Static Website]]

** Documentation
***_ MD
***_ [[https://plantuml.com/ Plantuml]]

@endmindmap

PlantUML version 1.2022.7(Mon Aug 22 19:01:30 CEST 2022)
(GPL source distribution)
Java Runtime: Java(TM) SE Runtime Environment
JVM: Java HotSpot(TM) Client VM
Default Encoding: Cp1252
Language: en
Country: US
--></g></svg>