<?xml version="1.0" encoding="UTF-8" standalone="no"?><svg xmlns="http://www.w3.org/2000/svg" xmlns:xlink="http://www.w3.org/1999/xlink" contentStyleType="text/css" height="810px" preserveAspectRatio="none" style="width:614px;height:810px;background:#FFFFFF;" version="1.1" viewBox="0 0 614 810" width="614px" zoomAndPan="magnify"><defs/><g><rect fill="#F1F1F1" height="37.6094" rx="12.5" ry="12.5" style="stroke:#181818;stroke-width:1.5;" width="66" x="10" y="385.5703"/><text fill="#000000" font-family="sans-serif" font-size="14" lengthAdjust="spacing" textLength="46" x="20" y="410.1035">System</text><rect fill="#F1F1F1" height="37.6094" rx="12.5" ry="12.5" style="stroke:#181818;stroke-width:1.5;" width="67" x="126" y="106.4141"/><text fill="#000000" font-family="sans-serif" font-size="14" lengthAdjust="spacing" textLength="47" x="136" y="130.9473">Tooling</text><rect fill="#F1F1F1" height="37.6094" rx="12.5" ry="12.5" style="stroke:#181818;stroke-width:1.5;" width="38" x="243" y="20"/><text fill="#000000" font-family="sans-serif" font-size="14" lengthAdjust="spacing" textLength="18" x="253" y="44.5332">Git</text><path d="M193,125.2188 L203,125.2188 C218,125.2188 218,38.8047 233,38.8047 L243,38.8047 " fill="none" style="stroke:#181818;stroke-width:1.0;"/><rect fill="#F1F1F1" height="37.6094" rx="12.5" ry="12.5" style="stroke:#181818;stroke-width:1.5;" width="70" x="243" y="77.6094"/><text fill="#000000" font-family="sans-serif" font-size="14" lengthAdjust="spacing" textLength="50" x="253" y="102.1426">.NET c#</text><path d="M193,125.2188 L203,125.2188 C218,125.2188 218,96.4141 233,96.4141 L243,96.4141 " fill="none" style="stroke:#181818;stroke-width:1.0;"/><rect fill="#F1F1F1" height="37.6094" rx="12.5" ry="12.5" style="stroke:#181818;stroke-width:1.5;" width="65" x="243" y="135.2188"/><text fill="#000000" font-family="sans-serif" font-size="14" lengthAdjust="spacing" textLength="45" x="253" y="159.752">Docker</text><path d="M193,125.2188 L203,125.2188 C218,125.2188 218,154.0234 233,154.0234 L243,154.0234 " fill="none" style="stroke:#181818;stroke-width:1.0;"/><rect fill="#F1F1F1" height="37.6094" rx="12.5" ry="12.5" style="stroke:#181818;stroke-width:1.5;" width="109" x="243" y="192.8281"/><a href="https://code.visualstudio.com/docs/devcontainers/containers" target="_top" title="https://code.visualstudio.com/docs/devcontainers/containers" xlink:actuate="onRequest" xlink:href="https://code.visualstudio.com/docs/devcontainers/containers" xlink:show="new" xlink:title="https://code.visualstudio.com/docs/devcontainers/containers" xlink:type="simple"><text fill="#0000FF" font-family="sans-serif" font-size="14" lengthAdjust="spacing" text-decoration="underline" textLength="89" x="253" y="217.3613">devcontainers</text></a><path d="M193,125.2188 L203,125.2188 C218,125.2188 218,211.6328 233,211.6328 L243,211.6328 " fill="none" style="stroke:#181818;stroke-width:1.0;"/><path d="M76,404.375 L86,404.375 C101,404.375 101,125.2188 116,125.2188 L126,125.2188 " fill="none" style="stroke:#181818;stroke-width:1.0;"/><rect fill="#F1F1F1" height="37.6094" rx="12.5" ry="12.5" style="stroke:#181818;stroke-width:1.5;" width="74" x="126" y="366.2656"/><text fill="#000000" font-family="sans-serif" font-size="14" lengthAdjust="spacing" textLength="54" x="136" y="390.7988">Services</text><rect fill="#F1F1F1" height="37.6094" rx="12.5" ry="12.5" style="stroke:#181818;stroke-width:1.5;" width="41" x="250" y="250.4375"/><text fill="#000000" font-family="sans-serif" font-size="14" lengthAdjust="spacing" textLength="21" x="260" y="274.9707">IaC</text><rect fill="#F1F1F1" height="37.6094" rx="12.5" ry="12.5" style="stroke:#181818;stroke-width:1.5;" width="62" x="341" y="250.4375"/><a href="https://www.pulumi.com/" target="_top" title="https://www.pulumi.com/" xlink:actuate="onRequest" xlink:href="https://www.pulumi.com/" xlink:show="new" xlink:title="https://www.pulumi.com/" xlink:type="simple"><text fill="#0000FF" font-family="sans-serif" font-size="14" lengthAdjust="spacing" text-decoration="underline" textLength="42" x="351" y="274.9707">Pulumi</text></a><a href="https://www.pulumi.com/registry/packages/azure/api-docs/appservice/functionapp/" target="_top" title="https://www.pulumi.com/registry/packages/azure/api-docs/appservice/functionapp/" xlink:actuate="onRequest" xlink:href="https://www.pulumi.com/registry/packages/azure/api-docs/appservice/functionapp/" xlink:show="new" xlink:title="https://www.pulumi.com/registry/packages/azure/api-docs/appservice/functionapp/" xlink:type="simple"><text fill="#0000FF" font-family="sans-serif" font-size="14" lengthAdjust="spacing" text-decoration="underline" textLength="84" x="456" y="265.166">App Function</text></a><path d="M403,269.2422 L413,269.2422 C428,269.2422 428,259.4375 443,259.4375 L453,259.4375 " fill="none" style="stroke:#181818;stroke-width:1.0;"/><a href="https://www.pulumi.com/templates/static-website/azure/" target="_top" title="https://www.pulumi.com/templates/static-website/azure/" xlink:actuate="onRequest" xlink:href="https://www.pulumi.com/templates/static-website/azure/" xlink:show="new" xlink:title="https://www.pulumi.com/templates/static-website/azure/" xlink:type="simple"><text fill="#0000FF" font-family="sans-serif" font-size="14" lengthAdjust="spacing" text-decoration="underline" textLength="90" x="456" y="284.7754">Static Website</text></a><path d="M403,269.2422 L413,269.2422 C428,269.2422 428,279.0469 443,279.0469 L453,279.0469 " fill="none" style="stroke:#181818;stroke-width:1.0;"/><path d="M291,269.2422 L301,269.2422 C316,269.2422 316,269.2422 331,269.2422 L341,269.2422 " fill="none" style="stroke:#181818;stroke-width:1.0;"/><path d="M200,385.0703 L210,385.0703 C225,385.0703 225,269.2422 240,269.2422 L250,269.2422 " fill="none" style="stroke:#181818;stroke-width:1.0;"/><rect fill="#F1F1F1" height="37.6094" rx="12.5" ry="12.5" style="stroke:#181818;stroke-width:1.5;" width="113" x="250" y="308.0469"/><a href="https://www.cloudflare.com" target="_top" title="https://www.cloudflare.com" xlink:actuate="onRequest" xlink:href="https://www.cloudflare.com" xlink:show="new" xlink:title="https://www.cloudflare.com" xlink:type="simple"><text fill="#0000FF" font-family="sans-serif" font-size="14" lengthAdjust="spacing" text-decoration="underline" textLength="93" x="260" y="332.5801">CLOUDFLARE</text></a><text fill="#000000" font-family="sans-serif" font-size="14" lengthAdjust="spacing" textLength="65" x="416" y="332.5801">CAPTCHA</text><path d="M363,326.8516 L373,326.8516 C388,326.8516 388,326.8516 403,326.8516 L413,326.8516 " fill="none" style="stroke:#181818;stroke-width:1.0;"/><path d="M200,385.0703 L210,385.0703 C225,385.0703 225,326.8516 240,326.8516 L250,326.8516 " fill="none" style="stroke:#181818;stroke-width:1.0;"/><rect fill="#F1F1F1" height="37.6094" rx="12.5" ry="12.5" style="stroke:#181818;stroke-width:1.5;" width="56" x="250" y="366.2656"/><text fill="#000000" font-family="sans-serif" font-size="14" lengthAdjust="spacing" textLength="36" x="260" y="390.7988">Azure</text><text fill="#000000" font-family="sans-serif" font-size="14" lengthAdjust="spacing" textLength="84" x="359" y="371.1895">App Function</text><path d="M306,385.0703 L316,385.0703 C331,385.0703 331,365.4609 346,365.4609 L356,365.4609 " fill="none" style="stroke:#181818;stroke-width:1.0;"/><text fill="#000000" font-family="sans-serif" font-size="14" lengthAdjust="spacing" textLength="90" x="359" y="390.7988">Static Website</text><path d="M306,385.0703 L316,385.0703 C331,385.0703 331,385.0703 346,385.0703 L356,385.0703 " fill="none" style="stroke:#181818;stroke-width:1.0;"/><text fill="#000000" font-family="sans-serif" font-size="14" lengthAdjust="spacing" textLength="28" x="359" y="410.4082">DNS</text><path d="M306,385.0703 L316,385.0703 C331,385.0703 331,404.6797 346,404.6797 L356,404.6797 " fill="none" style="stroke:#181818;stroke-width:1.0;"/><path d="M200,385.0703 L210,385.0703 C225,385.0703 225,385.0703 240,385.0703 L250,385.0703 " fill="none" style="stroke:#181818;stroke-width:1.0;"/><rect fill="#F1F1F1" height="37.6094" rx="12.5" ry="12.5" style="stroke:#181818;stroke-width:1.5;" width="85" x="250" y="424.4844"/><a href="https://mailchimp.com" target="_top" title="https://mailchimp.com" xlink:actuate="onRequest" xlink:href="https://mailchimp.com" xlink:show="new" xlink:title="https://mailchimp.com" xlink:type="simple"><text fill="#0000FF" font-family="sans-serif" font-size="14" lengthAdjust="spacing" text-decoration="underline" textLength="65" x="260" y="449.0176">MailChimp</text></a><a href="https://us8.admin.mailchimp.com/account/client-key/" target="_top" title="https://us8.admin.mailchimp.com/account/client-key/" xlink:actuate="onRequest" xlink:href="https://us8.admin.mailchimp.com/account/client-key/" xlink:show="new" xlink:title="https://us8.admin.mailchimp.com/account/client-key/" xlink:type="simple"><text fill="#0000FF" font-family="sans-serif" font-size="14" lengthAdjust="spacing" text-decoration="underline" textLength="214" x="388" y="449.0176">Api key - Free (1000 mails/month)</text></a><path d="M335,443.2891 L345,443.2891 C360,443.2891 360,443.2891 375,443.2891 L385,443.2891 " fill="none" style="stroke:#181818;stroke-width:1.0;"/><path d="M200,385.0703 L210,385.0703 C225,385.0703 225,443.2891 240,443.2891 L250,443.2891 " fill="none" style="stroke:#181818;stroke-width:1.0;"/><rect fill="#F1F1F1" height="37.6094" rx="12.5" ry="12.5" style="stroke:#181818;stroke-width:1.5;" width="62" x="250" y="482.0938"/><a href="https://github.com/" target="_top" title="https://github.com/" xlink:actuate="onRequest" xlink:href="https://github.com/" xlink:show="new" xlink:title="https://github.com/" xlink:type="simple"><text fill="#0000FF" font-family="sans-serif" font-size="14" lengthAdjust="spacing" text-decoration="underline" textLength="42" x="260" y="506.627">Github</text></a><rect fill="#F1F1F1" height="37.6094" rx="12.5" ry="12.5" style="stroke:#181818;stroke-width:1.5;" width="111" x="362" y="482.0938"/><text fill="#000000" font-family="sans-serif" font-size="14" lengthAdjust="spacing" textLength="91" x="372" y="506.627">Github actions</text><path d="M312,500.8984 L322,500.8984 C337,500.8984 337,500.8984 352,500.8984 L362,500.8984 " fill="none" style="stroke:#181818;stroke-width:1.0;"/><path d="M200,385.0703 L210,385.0703 C225,385.0703 225,500.8984 240,500.8984 L250,500.8984 " fill="none" style="stroke:#181818;stroke-width:1.0;"/><path d="M76,404.375 L86,404.375 C101,404.375 101,385.0703 116,385.0703 L126,385.0703 " fill="none" style="stroke:#181818;stroke-width:1.0;"/><rect fill="#F1F1F1" height="37.6094" rx="12.5" ry="12.5" style="stroke:#181818;stroke-width:1.5;" width="127" x="126" y="597.3125"/><text fill="#000000" font-family="sans-serif" font-size="14" lengthAdjust="spacing" textLength="107" x="136" y="621.8457">Build and Deploy</text><rect fill="#F1F1F1" height="37.6094" rx="12.5" ry="12.5" style="stroke:#181818;stroke-width:1.5;" width="87" x="303" y="539.7031"/><a href="https://nuke.build/" target="_top" title="https://nuke.build/" xlink:actuate="onRequest" xlink:href="https://nuke.build/" xlink:show="new" xlink:title="https://nuke.build/" xlink:type="simple"><text fill="#0000FF" font-family="sans-serif" font-size="14" lengthAdjust="spacing" text-decoration="underline" textLength="67" x="313" y="564.2363">Nuke Build</text></a><path d="M253,616.1172 L263,616.1172 C278,616.1172 278,558.5078 293,558.5078 L303,558.5078 " fill="none" style="stroke:#181818;stroke-width:1.0;"/><rect fill="#F1F1F1" height="37.6094" rx="12.5" ry="12.5" style="stroke:#181818;stroke-width:1.5;" width="106" x="303" y="597.3125"/><a href="https://learn.microsoft.com/en-us/rest/api/azure/" target="_top" title="https://learn.microsoft.com/en-us/rest/api/azure/" xlink:actuate="onRequest" xlink:href="https://learn.microsoft.com/en-us/rest/api/azure/" xlink:show="new" xlink:title="https://learn.microsoft.com/en-us/rest/api/azure/" xlink:type="simple"><text fill="#0000FF" font-family="sans-serif" font-size="14" lengthAdjust="spacing" text-decoration="underline" textLength="86" x="313" y="621.8457">azure rest api</text></a><path d="M253,616.1172 L263,616.1172 C278,616.1172 278,616.1172 293,616.1172 L303,616.1172 " fill="none" style="stroke:#181818;stroke-width:1.0;"/><rect fill="#F1F1F1" height="37.6094" rx="12.5" ry="12.5" style="stroke:#181818;stroke-width:1.5;" width="83" x="303" y="654.9219"/><a href="https://learn.microsoft.com/en-us/azure/azure-functions/deployment-zip-push" target="_top" title="https://learn.microsoft.com/en-us/azure/azure-functions/deployment-zip-push" xlink:actuate="onRequest" xlink:href="https://learn.microsoft.com/en-us/azure/azure-functions/deployment-zip-push" xlink:show="new" xlink:title="https://learn.microsoft.com/en-us/azure/azure-functions/deployment-zip-push" xlink:type="simple"><text fill="#0000FF" font-family="sans-serif" font-size="14" lengthAdjust="spacing" text-decoration="underline" textLength="63" x="313" y="679.4551">zip deploy</text></a><path d="M253,616.1172 L263,616.1172 C278,616.1172 278,673.7266 293,673.7266 L303,673.7266 " fill="none" style="stroke:#181818;stroke-width:1.0;"/><path d="M76,404.375 L86,404.375 C101,404.375 101,616.1172 116,616.1172 L126,616.1172 " fill="none" style="stroke:#181818;stroke-width:1.0;"/><rect fill="#F1F1F1" height="37.6094" rx="12.5" ry="12.5" style="stroke:#181818;stroke-width:1.5;" width="91" x="126" y="693.5313"/><text fill="#000000" font-family="sans-serif" font-size="14" lengthAdjust="spacing" textLength="71" x="136" y="718.0645">Automation</text><text fill="#000000" font-family="sans-serif" font-size="14" lengthAdjust="spacing" textLength="91" x="270" y="718.0645">Github actions</text><path d="M217,712.3359 L227,712.3359 C242,712.3359 242,712.3359 257,712.3359 L267,712.3359 " fill="none" style="stroke:#181818;stroke-width:1.0;"/><path d="M76,404.375 L86,404.375 C101,404.375 101,712.3359 116,712.3359 L126,712.3359 " fill="none" style="stroke:#181818;stroke-width:1.0;"/><rect fill="#F1F1F1" height="37.6094" rx="12.5" ry="12.5" style="stroke:#181818;stroke-width:1.5;" width="115" x="126" y="751.1406"/><text fill="#000000" font-family="sans-serif" font-size="14" lengthAdjust="spacing" textLength="95" x="136" y="775.6738">Documentation</text><text fill="#000000" font-family="sans-serif" font-size="14" lengthAdjust="spacing" textLength="21" x="294" y="765.8691">MD</text><path d="M241,769.9453 L251,769.9453 C266,769.9453 266,760.1406 281,760.1406 L291,760.1406 " fill="none" style="stroke:#181818;stroke-width:1.0;"/><a href="https://plantuml.com/" target="_top" title="https://plantuml.com/" xlink:actuate="onRequest" xlink:href="https://plantuml.com/" xlink:show="new" xlink:title="https://plantuml.com/" xlink:type="simple"><text fill="#0000FF" font-family="sans-serif" font-size="14" lengthAdjust="spacing" text-decoration="underline" textLength="54" x="294" y="785.4785">Plantuml</text></a><path d="M241,769.9453 L251,769.9453 C266,769.9453 266,779.75 281,779.75 L291,779.75 " fill="none" style="stroke:#181818;stroke-width:1.0;"/><path d="M76,404.375 L86,404.375 C101,404.375 101,769.9453 116,769.9453 L126,769.9453 " fill="none" style="stroke:#181818;stroke-width:1.0;"/><!--MD5=[34a679097823316d20d3e527ae6ab16c]
@startmindmap "System overview"
* System
** Tooling
*** Git
*** .NET c#
*** Docker
*** [[https://code.visualstudio.com/docs/devcontainers/containers devcontainers]]
** Services
*** IaC
**** [[https://www.pulumi.com/ Pulumi]]
*****_ [[https://www.pulumi.com/registry/packages/azure/api-docs/appservice/functionapp/ App Function]]
*****_ [[https://www.pulumi.com/templates/static-website/azure/ Static Website]]
*** [[https://www.cloudflare.com CLOUDFLARE]]
****_ CAPTCHA
*** Azure
****_ App Function
****_ Static Website
****_ DNS
*** [[https://mailchimp.com MailChimp]]
****_ [[https://us8.admin.mailchimp.com/account/client-key/ Api key - Free (1000 mails/month)]]
*** [[https://github.com/ Github]]
**** Github actions
** Build and Deploy
*** [[https://nuke.build/ Nuke Build]]
*** [[https://learn.microsoft.com/en-us/rest/api/azure/ azure rest api]]
*** [[https://learn.microsoft.com/en-us/azure/azure-functions/deployment-zip-push zip deploy]]
** Automation
***_ Github actions

** Documentation
***_ MD
***_ [[https://plantuml.com/ Plantuml]]

@endmindmap

PlantUML version 1.2022.7(Mon Aug 22 19:01:30 CEST 2022)
(GPL source distribution)
Java Runtime: Java(TM) SE Runtime Environment
JVM: Java HotSpot(TM) Client VM
Default Encoding: Cp1252
Language: en
Country: US
--></g></svg>