<?xml version="1.0" encoding="UTF-8" standalone="no"?><svg xmlns="http://www.w3.org/2000/svg" xmlns:xlink="http://www.w3.org/1999/xlink" contentStyleType="text/css" height="925px" preserveAspectRatio="none" style="width:614px;height:925px;background:#FFFFFF;" version="1.1" viewBox="0 0 614 925" width="614px" zoomAndPan="magnify"><defs/><g><rect fill="#F1F1F1" height="37.6094" rx="12.5" ry="12.5" style="stroke:#181818;stroke-width:1.5;" width="66" x="10" y="443.1797"/><text fill="#000000" font-family="sans-serif" font-size="14" lengthAdjust="spacing" textLength="46" x="20" y="467.7129">System</text><rect fill="#F1F1F1" height="37.6094" rx="12.5" ry="12.5" style="stroke:#181818;stroke-width:1.5;" width="67" x="126" y="164.0234"/><text fill="#000000" font-family="sans-serif" font-size="14" lengthAdjust="spacing" textLength="47" x="136" y="188.5566">Tooling</text><rect fill="#F1F1F1" height="37.6094" rx="12.5" ry="12.5" style="stroke:#181818;stroke-width:1.5;" width="38" x="243" y="20"/><text fill="#000000" font-family="sans-serif" font-size="14" lengthAdjust="spacing" textLength="18" x="253" y="44.5332">Git</text><path d="M193,182.8281 L203,182.8281 C218,182.8281 218,38.8047 233,38.8047 L243,38.8047 " fill="none" style="stroke:#181818;stroke-width:1.0;"/><rect fill="#F1F1F1" height="37.6094" rx="12.5" ry="12.5" style="stroke:#181818;stroke-width:1.5;" width="70" x="243" y="77.6094"/><text fill="#000000" font-family="sans-serif" font-size="14" lengthAdjust="spacing" textLength="50" x="253" y="102.1426">.NET c#</text><path d="M193,182.8281 L203,182.8281 C218,182.8281 218,96.4141 233,96.4141 L243,96.4141 " fill="none" style="stroke:#181818;stroke-width:1.0;"/><rect fill="#F1F1F1" height="37.6094" rx="12.5" ry="12.5" style="stroke:#181818;stroke-width:1.5;" width="65" x="243" y="135.2188"/><text fill="#000000" font-family="sans-serif" font-size="14" lengthAdjust="spacing" textLength="45" x="253" y="159.752">Docker</text><path d="M193,182.8281 L203,182.8281 C218,182.8281 218,154.0234 233,154.0234 L243,154.0234 " fill="none" style="stroke:#181818;stroke-width:1.0;"/><rect fill="#F1F1F1" height="37.6094" rx="12.5" ry="12.5" style="stroke:#181818;stroke-width:1.5;" width="109" x="243" y="192.8281"/><a href="https://code.visualstudio.com/docs/devcontainers/containers" target="_top" title="https://code.visualstudio.com/docs/devcontainers/containers" xlink:actuate="onRequest" xlink:href="https://code.visualstudio.com/docs/devcontainers/containers" xlink:show="new" xlink:title="https://code.visualstudio.com/docs/devcontainers/containers" xlink:type="simple"><text fill="#0000FF" font-family="sans-serif" font-size="14" lengthAdjust="spacing" text-decoration="underline" textLength="89" x="253" y="217.3613">devcontainers</text></a><path d="M193,182.8281 L203,182.8281 C218,182.8281 218,211.6328 233,211.6328 L243,211.6328 " fill="none" style="stroke:#181818;stroke-width:1.0;"/><rect fill="#F1F1F1" height="37.6094" rx="12.5" ry="12.5" style="stroke:#181818;stroke-width:1.5;" width="198" x="243" y="250.4375"/><a href="https://github.com/nektos/act" target="_top" title="https://github.com/nektos/act" xlink:actuate="onRequest" xlink:href="https://github.com/nektos/act" xlink:show="new" xlink:title="https://github.com/nektos/act" xlink:type="simple"><text fill="#0000FF" font-family="sans-serif" font-size="14" lengthAdjust="spacing" text-decoration="underline" textLength="178" x="253" y="274.9707">act - github workflows locally</text></a><path d="M193,182.8281 L203,182.8281 C218,182.8281 218,269.2422 233,269.2422 L243,269.2422 " fill="none" style="stroke:#181818;stroke-width:1.0;"/><rect fill="#F1F1F1" height="37.6094" rx="12.5" ry="12.5" style="stroke:#181818;stroke-width:1.5;" width="256" x="243" y="308.0469"/><a href="https://github.com/coreybutler/nvm-windows/releases" target="_top" title="https://github.com/coreybutler/nvm-windows/releases" xlink:actuate="onRequest" xlink:href="https://github.com/coreybutler/nvm-windows/releases" xlink:show="new" xlink:title="https://github.com/coreybutler/nvm-windows/releases" xlink:type="simple"><text fill="#0000FF" font-family="sans-serif" font-size="14" lengthAdjust="spacing" text-decoration="underline" textLength="83" x="253" y="332.5801">nvm-windows</text></a><text fill="#000000" font-family="sans-serif" font-size="14" lengthAdjust="spacing" textLength="4" x="336" y="332.5801"> </text><text fill="#000000" font-family="sans-serif" font-size="14" font-weight="bold" lengthAdjust="spacing" textLength="149" x="340" y="332.5801">(tested with v. 21.5.0)</text><path d="M193,182.8281 L203,182.8281 C218,182.8281 218,326.8516 233,326.8516 L243,326.8516 " fill="none" style="stroke:#181818;stroke-width:1.0;"/><path d="M76,461.9844 L86,461.9844 C101,461.9844 101,182.8281 116,182.8281 L126,182.8281 " fill="none" style="stroke:#181818;stroke-width:1.0;"/><rect fill="#F1F1F1" height="37.6094" rx="12.5" ry="12.5" style="stroke:#181818;stroke-width:1.5;" width="74" x="126" y="481.4844"/><text fill="#000000" font-family="sans-serif" font-size="14" lengthAdjust="spacing" textLength="54" x="136" y="506.0176">Services</text><rect fill="#F1F1F1" height="37.6094" rx="12.5" ry="12.5" style="stroke:#181818;stroke-width:1.5;" width="41" x="250" y="365.6563"/><text fill="#000000" font-family="sans-serif" font-size="14" lengthAdjust="spacing" textLength="21" x="260" y="390.1895">IaC</text><rect fill="#F1F1F1" height="37.6094" rx="12.5" ry="12.5" style="stroke:#181818;stroke-width:1.5;" width="62" x="341" y="365.6563"/><a href="https://www.pulumi.com/" target="_top" title="https://www.pulumi.com/" xlink:actuate="onRequest" xlink:href="https://www.pulumi.com/" xlink:show="new" xlink:title="https://www.pulumi.com/" xlink:type="simple"><text fill="#0000FF" font-family="sans-serif" font-size="14" lengthAdjust="spacing" text-decoration="underline" textLength="42" x="351" y="390.1895">Pulumi</text></a><a href="https://www.pulumi.com/registry/packages/azure/api-docs/appservice/functionapp/" target="_top" title="https://www.pulumi.com/registry/packages/azure/api-docs/appservice/functionapp/" xlink:actuate="onRequest" xlink:href="https://www.pulumi.com/registry/packages/azure/api-docs/appservice/functionapp/" xlink:show="new" xlink:title="https://www.pulumi.com/registry/packages/azure/api-docs/appservice/functionapp/" xlink:type="simple"><text fill="#0000FF" font-family="sans-serif" font-size="14" lengthAdjust="spacing" text-decoration="underline" textLength="84" x="456" y="380.3848">App Function</text></a><path d="M403,384.4609 L413,384.4609 C428,384.4609 428,374.6563 443,374.6563 L453,374.6563 " fill="none" style="stroke:#181818;stroke-width:1.0;"/><a href="https://www.pulumi.com/templates/static-website/azure/" target="_top" title="https://www.pulumi.com/templates/static-website/azure/" xlink:actuate="onRequest" xlink:href="https://www.pulumi.com/templates/static-website/azure/" xlink:show="new" xlink:title="https://www.pulumi.com/templates/static-website/azure/" xlink:type="simple"><text fill="#0000FF" font-family="sans-serif" font-size="14" lengthAdjust="spacing" text-decoration="underline" textLength="90" x="456" y="399.9941">Static Website</text></a><path d="M403,384.4609 L413,384.4609 C428,384.4609 428,394.2656 443,394.2656 L453,394.2656 " fill="none" style="stroke:#181818;stroke-width:1.0;"/><path d="M291,384.4609 L301,384.4609 C316,384.4609 316,384.4609 331,384.4609 L341,384.4609 " fill="none" style="stroke:#181818;stroke-width:1.0;"/><path d="M200,500.2891 L210,500.2891 C225,500.2891 225,384.4609 240,384.4609 L250,384.4609 " fill="none" style="stroke:#181818;stroke-width:1.0;"/><rect fill="#F1F1F1" height="37.6094" rx="12.5" ry="12.5" style="stroke:#181818;stroke-width:1.5;" width="113" x="250" y="423.2656"/><a href="https://www.cloudflare.com" target="_top" title="https://www.cloudflare.com" xlink:actuate="onRequest" xlink:href="https://www.cloudflare.com" xlink:show="new" xlink:title="https://www.cloudflare.com" xlink:type="simple"><text fill="#0000FF" font-family="sans-serif" font-size="14" lengthAdjust="spacing" text-decoration="underline" textLength="93" x="260" y="447.7988">CLOUDFLARE</text></a><text fill="#000000" font-family="sans-serif" font-size="14" lengthAdjust="spacing" textLength="65" x="416" y="447.7988">CAPTCHA</text><path d="M363,442.0703 L373,442.0703 C388,442.0703 388,442.0703 403,442.0703 L413,442.0703 " fill="none" style="stroke:#181818;stroke-width:1.0;"/><path d="M200,500.2891 L210,500.2891 C225,500.2891 225,442.0703 240,442.0703 L250,442.0703 " fill="none" style="stroke:#181818;stroke-width:1.0;"/><rect fill="#F1F1F1" height="37.6094" rx="12.5" ry="12.5" style="stroke:#181818;stroke-width:1.5;" width="56" x="250" y="481.4844"/><text fill="#000000" font-family="sans-serif" font-size="14" lengthAdjust="spacing" textLength="36" x="260" y="506.0176">Azure</text><text fill="#000000" font-family="sans-serif" font-size="14" lengthAdjust="spacing" textLength="84" x="359" y="486.4082">App Function</text><path d="M306,500.2891 L316,500.2891 C331,500.2891 331,480.6797 346,480.6797 L356,480.6797 " fill="none" style="stroke:#181818;stroke-width:1.0;"/><text fill="#000000" font-family="sans-serif" font-size="14" lengthAdjust="spacing" textLength="90" x="359" y="506.0176">Static Website</text><path d="M306,500.2891 L316,500.2891 C331,500.2891 331,500.2891 346,500.2891 L356,500.2891 " fill="none" style="stroke:#181818;stroke-width:1.0;"/><text fill="#000000" font-family="sans-serif" font-size="14" lengthAdjust="spacing" textLength="28" x="359" y="525.627">DNS</text><path d="M306,500.2891 L316,500.2891 C331,500.2891 331,519.8984 346,519.8984 L356,519.8984 " fill="none" style="stroke:#181818;stroke-width:1.0;"/><path d="M200,500.2891 L210,500.2891 C225,500.2891 225,500.2891 240,500.2891 L250,500.2891 " fill="none" style="stroke:#181818;stroke-width:1.0;"/><rect fill="#F1F1F1" height="37.6094" rx="12.5" ry="12.5" style="stroke:#181818;stroke-width:1.5;" width="85" x="250" y="539.7031"/><a href="https://mailchimp.com" target="_top" title="https://mailchimp.com" xlink:actuate="onRequest" xlink:href="https://mailchimp.com" xlink:show="new" xlink:title="https://mailchimp.com" xlink:type="simple"><text fill="#0000FF" font-family="sans-serif" font-size="14" lengthAdjust="spacing" text-decoration="underline" textLength="65" x="260" y="564.2363">MailChimp</text></a><a href="https://us8.admin.mailchimp.com/account/client-key/" target="_top" title="https://us8.admin.mailchimp.com/account/client-key/" xlink:actuate="onRequest" xlink:href="https://us8.admin.mailchimp.com/account/client-key/" xlink:show="new" xlink:title="https://us8.admin.mailchimp.com/account/client-key/" xlink:type="simple"><text fill="#0000FF" font-family="sans-serif" font-size="14" lengthAdjust="spacing" text-decoration="underline" textLength="214" x="388" y="564.2363">Api key - Free (1000 mails/month)</text></a><path d="M335,558.5078 L345,558.5078 C360,558.5078 360,558.5078 375,558.5078 L385,558.5078 " fill="none" style="stroke:#181818;stroke-width:1.0;"/><path d="M200,500.2891 L210,500.2891 C225,500.2891 225,558.5078 240,558.5078 L250,558.5078 " fill="none" style="stroke:#181818;stroke-width:1.0;"/><rect fill="#F1F1F1" height="37.6094" rx="12.5" ry="12.5" style="stroke:#181818;stroke-width:1.5;" width="62" x="250" y="597.3125"/><a href="https://github.com/" target="_top" title="https://github.com/" xlink:actuate="onRequest" xlink:href="https://github.com/" xlink:show="new" xlink:title="https://github.com/" xlink:type="simple"><text fill="#0000FF" font-family="sans-serif" font-size="14" lengthAdjust="spacing" text-decoration="underline" textLength="42" x="260" y="621.8457">Github</text></a><rect fill="#F1F1F1" height="37.6094" rx="12.5" ry="12.5" style="stroke:#181818;stroke-width:1.5;" width="111" x="362" y="597.3125"/><text fill="#000000" font-family="sans-serif" font-size="14" lengthAdjust="spacing" textLength="91" x="372" y="621.8457">Github actions</text><path d="M312,616.1172 L322,616.1172 C337,616.1172 337,616.1172 352,616.1172 L362,616.1172 " fill="none" style="stroke:#181818;stroke-width:1.0;"/><path d="M200,500.2891 L210,500.2891 C225,500.2891 225,616.1172 240,616.1172 L250,616.1172 " fill="none" style="stroke:#181818;stroke-width:1.0;"/><path d="M76,461.9844 L86,461.9844 C101,461.9844 101,500.2891 116,500.2891 L126,500.2891 " fill="none" style="stroke:#181818;stroke-width:1.0;"/><rect fill="#F1F1F1" height="37.6094" rx="12.5" ry="12.5" style="stroke:#181818;stroke-width:1.5;" width="127" x="126" y="712.5313"/><text fill="#000000" font-family="sans-serif" font-size="14" lengthAdjust="spacing" textLength="107" x="136" y="737.0645">Build and Deploy</text><rect fill="#F1F1F1" height="37.6094" rx="12.5" ry="12.5" style="stroke:#181818;stroke-width:1.5;" width="87" x="303" y="654.9219"/><a href="https://nuke.build/" target="_top" title="https://nuke.build/" xlink:actuate="onRequest" xlink:href="https://nuke.build/" xlink:show="new" xlink:title="https://nuke.build/" xlink:type="simple"><text fill="#0000FF" font-family="sans-serif" font-size="14" lengthAdjust="spacing" text-decoration="underline" textLength="67" x="313" y="679.4551">Nuke Build</text></a><path d="M253,731.3359 L263,731.3359 C278,731.3359 278,673.7266 293,673.7266 L303,673.7266 " fill="none" style="stroke:#181818;stroke-width:1.0;"/><rect fill="#F1F1F1" height="37.6094" rx="12.5" ry="12.5" style="stroke:#181818;stroke-width:1.5;" width="106" x="303" y="712.5313"/><a href="https://learn.microsoft.com/en-us/rest/api/azure/" target="_top" title="https://learn.microsoft.com/en-us/rest/api/azure/" xlink:actuate="onRequest" xlink:href="https://learn.microsoft.com/en-us/rest/api/azure/" xlink:show="new" xlink:title="https://learn.microsoft.com/en-us/rest/api/azure/" xlink:type="simple"><text fill="#0000FF" font-family="sans-serif" font-size="14" lengthAdjust="spacing" text-decoration="underline" textLength="86" x="313" y="737.0645">azure rest api</text></a><path d="M253,731.3359 L263,731.3359 C278,731.3359 278,731.3359 293,731.3359 L303,731.3359 " fill="none" style="stroke:#181818;stroke-width:1.0;"/><rect fill="#F1F1F1" height="37.6094" rx="12.5" ry="12.5" style="stroke:#181818;stroke-width:1.5;" width="83" x="303" y="770.1406"/><a href="https://learn.microsoft.com/en-us/azure/azure-functions/deployment-zip-push" target="_top" title="https://learn.microsoft.com/en-us/azure/azure-functions/deployment-zip-push" xlink:actuate="onRequest" xlink:href="https://learn.microsoft.com/en-us/azure/azure-functions/deployment-zip-push" xlink:show="new" xlink:title="https://learn.microsoft.com/en-us/azure/azure-functions/deployment-zip-push" xlink:type="simple"><text fill="#0000FF" font-family="sans-serif" font-size="14" lengthAdjust="spacing" text-decoration="underline" textLength="63" x="313" y="794.6738">zip deploy</text></a><path d="M253,731.3359 L263,731.3359 C278,731.3359 278,788.9453 293,788.9453 L303,788.9453 " fill="none" style="stroke:#181818;stroke-width:1.0;"/><path d="M76,461.9844 L86,461.9844 C101,461.9844 101,731.3359 116,731.3359 L126,731.3359 " fill="none" style="stroke:#181818;stroke-width:1.0;"/><rect fill="#F1F1F1" height="37.6094" rx="12.5" ry="12.5" style="stroke:#181818;stroke-width:1.5;" width="91" x="126" y="808.75"/><text fill="#000000" font-family="sans-serif" font-size="14" lengthAdjust="spacing" textLength="71" x="136" y="833.2832">Automation</text><text fill="#000000" font-family="sans-serif" font-size="14" lengthAdjust="spacing" textLength="91" x="270" y="833.2832">Github actions</text><path d="M217,827.5547 L227,827.5547 C242,827.5547 242,827.5547 257,827.5547 L267,827.5547 " fill="none" style="stroke:#181818;stroke-width:1.0;"/><path d="M76,461.9844 L86,461.9844 C101,461.9844 101,827.5547 116,827.5547 L126,827.5547 " fill="none" style="stroke:#181818;stroke-width:1.0;"/><rect fill="#F1F1F1" height="37.6094" rx="12.5" ry="12.5" style="stroke:#181818;stroke-width:1.5;" width="115" x="126" y="866.3594"/><text fill="#000000" font-family="sans-serif" font-size="14" lengthAdjust="spacing" textLength="95" x="136" y="890.8926">Documentation</text><text fill="#000000" font-family="sans-serif" font-size="14" lengthAdjust="spacing" textLength="21" x="294" y="881.0879">MD</text><path d="M241,885.1641 L251,885.1641 C266,885.1641 266,875.3594 281,875.3594 L291,875.3594 " fill="none" style="stroke:#181818;stroke-width:1.0;"/><a href="https://plantuml.com/" target="_top" title="https://plantuml.com/" xlink:actuate="onRequest" xlink:href="https://plantuml.com/" xlink:show="new" xlink:title="https://plantuml.com/" xlink:type="simple"><text fill="#0000FF" font-family="sans-serif" font-size="14" lengthAdjust="spacing" text-decoration="underline" textLength="54" x="294" y="900.6973">Plantuml</text></a><path d="M241,885.1641 L251,885.1641 C266,885.1641 266,894.9688 281,894.9688 L291,894.9688 " fill="none" style="stroke:#181818;stroke-width:1.0;"/><path d="M76,461.9844 L86,461.9844 C101,461.9844 101,885.1641 116,885.1641 L126,885.1641 " fill="none" style="stroke:#181818;stroke-width:1.0;"/><!--MD5=[8407326ba86525fbaf6ecb33ecff26a6]
@startmindmap "System overview"
* System
** Tooling
*** Git
*** .NET c#
*** Docker
*** [[https://code.visualstudio.com/docs/devcontainers/containers devcontainers]]
*** [[https://github.com/nektos/act act - github workflows locally]]
*** [[https://github.com/coreybutler/nvm-windows/releases nvm-windows]] **(tested with v. 21.5.0)**
** Services
*** IaC
**** [[https://www.pulumi.com/ Pulumi]]
*****_ [[https://www.pulumi.com/registry/packages/azure/api-docs/appservice/functionapp/ App Function]]
*****_ [[https://www.pulumi.com/templates/static-website/azure/ Static Website]]
*** [[https://www.cloudflare.com CLOUDFLARE]]
****_ CAPTCHA
*** Azure
****_ App Function
****_ Static Website
****_ DNS
*** [[https://mailchimp.com MailChimp]]
****_ [[https://us8.admin.mailchimp.com/account/client-key/ Api key - Free (1000 mails/month)]]
*** [[https://github.com/ Github]]
**** Github actions
** Build and Deploy
*** [[https://nuke.build/ Nuke Build]]
*** [[https://learn.microsoft.com/en-us/rest/api/azure/ azure rest api]]
*** [[https://learn.microsoft.com/en-us/azure/azure-functions/deployment-zip-push zip deploy]]
** Automation
***_ Github actions

** Documentation
***_ MD
***_ [[https://plantuml.com/ Plantuml]]

@endmindmap

PlantUML version 1.2022.7(Mon Aug 22 19:01:30 CEST 2022)
(GPL source distribution)
Java Runtime: Java(TM) SE Runtime Environment
JVM: Java HotSpot(TM) Client VM
Default Encoding: Cp1252
Language: en
Country: US
--></g></svg>