<?xml version="1.0" encoding="UTF-8" standalone="no"?><svg xmlns="http://www.w3.org/2000/svg" xmlns:xlink="http://www.w3.org/1999/xlink" contentStyleType="text/css" height="676px" preserveAspectRatio="none" style="width:614px;height:676px;background:#FFFFFF;" version="1.1" viewBox="0 0 614 676" width="614px" zoomAndPan="magnify"><defs/><g><rect fill="#F1F1F1" height="37.6094" rx="12.5" ry="12.5" style="stroke:#181818;stroke-width:1.5;" width="66" x="10" y="318.4609"/><text fill="#000000" font-family="sans-serif" font-size="14" lengthAdjust="spacing" textLength="46" x="20" y="342.9941">System</text><rect fill="#F1F1F1" height="37.6094" rx="12.5" ry="12.5" style="stroke:#181818;stroke-width:1.5;" width="38" x="126" y="20"/><text fill="#000000" font-family="sans-serif" font-size="14" lengthAdjust="spacing" textLength="18" x="136" y="44.5332">Git</text><path d="M76,337.2656 L86,337.2656 C101,337.2656 101,38.8047 116,38.8047 L126,38.8047 " fill="none" style="stroke:#181818;stroke-width:1.0;"/><rect fill="#F1F1F1" height="37.6094" rx="12.5" ry="12.5" style="stroke:#181818;stroke-width:1.5;" width="70" x="126" y="77.6094"/><text fill="#000000" font-family="sans-serif" font-size="14" lengthAdjust="spacing" textLength="50" x="136" y="102.1426">.NET c#</text><path d="M76,337.2656 L86,337.2656 C101,337.2656 101,96.4141 116,96.4141 L126,96.4141 " fill="none" style="stroke:#181818;stroke-width:1.0;"/><rect fill="#F1F1F1" height="37.6094" rx="12.5" ry="12.5" style="stroke:#181818;stroke-width:1.5;" width="65" x="126" y="135.2188"/><text fill="#000000" font-family="sans-serif" font-size="14" lengthAdjust="spacing" textLength="45" x="136" y="159.752">Docker</text><path d="M76,337.2656 L86,337.2656 C101,337.2656 101,154.0234 116,154.0234 L126,154.0234 " fill="none" style="stroke:#181818;stroke-width:1.0;"/><rect fill="#F1F1F1" height="37.6094" rx="12.5" ry="12.5" style="stroke:#181818;stroke-width:1.5;" width="106" x="126" y="192.8281"/><text fill="#000000" font-family="sans-serif" font-size="14" lengthAdjust="spacing" textLength="86" x="136" y="217.3613">dev container</text><path d="M76,337.2656 L86,337.2656 C101,337.2656 101,211.6328 116,211.6328 L126,211.6328 " fill="none" style="stroke:#181818;stroke-width:1.0;"/><rect fill="#F1F1F1" height="37.6094" rx="12.5" ry="12.5" style="stroke:#181818;stroke-width:1.5;" width="74" x="126" y="347.2656"/><text fill="#000000" font-family="sans-serif" font-size="14" lengthAdjust="spacing" textLength="54" x="136" y="371.7988">Services</text><rect fill="#F1F1F1" height="37.6094" rx="12.5" ry="12.5" style="stroke:#181818;stroke-width:1.5;" width="190" x="250" y="250.4375"/><a href="CLOUDFLARE" target="_top" title="CLOUDFLARE" xlink:actuate="onRequest" xlink:href="CLOUDFLARE" xlink:show="new" xlink:title="CLOUDFLARE" xlink:type="simple"><text fill="#0000FF" font-family="sans-serif" font-size="14" lengthAdjust="spacing" text-decoration="underline" textLength="170" x="260" y="274.9707">https://www.cloudflare.com/</text></a><path d="M200,366.0703 L210,366.0703 C225,366.0703 225,269.2422 240,269.2422 L250,269.2422 " fill="none" style="stroke:#181818;stroke-width:1.0;"/><text fill="#000000" font-family="sans-serif" font-size="14" lengthAdjust="spacing" textLength="65" x="253" y="313.5801">CAPTCHA</text><path d="M200,366.0703 L210,366.0703 C225,366.0703 225,307.8516 240,307.8516 L250,307.8516 " fill="none" style="stroke:#181818;stroke-width:1.0;"/><rect fill="#F1F1F1" height="37.6094" rx="12.5" ry="12.5" style="stroke:#181818;stroke-width:1.5;" width="56" x="250" y="328.2656"/><text fill="#000000" font-family="sans-serif" font-size="14" lengthAdjust="spacing" textLength="36" x="260" y="352.7988">Azure</text><text fill="#000000" font-family="sans-serif" font-size="14" lengthAdjust="spacing" textLength="84" x="359" y="333.1895">App Function</text><path d="M306,347.0703 L316,347.0703 C331,347.0703 331,327.4609 346,327.4609 L356,327.4609 " fill="none" style="stroke:#181818;stroke-width:1.0;"/><text fill="#000000" font-family="sans-serif" font-size="14" lengthAdjust="spacing" textLength="90" x="359" y="352.7988">Static Website</text><path d="M306,347.0703 L316,347.0703 C331,347.0703 331,347.0703 346,347.0703 L356,347.0703 " fill="none" style="stroke:#181818;stroke-width:1.0;"/><text fill="#000000" font-family="sans-serif" font-size="14" lengthAdjust="spacing" textLength="28" x="359" y="372.4082">DNS</text><path d="M306,347.0703 L316,347.0703 C331,347.0703 331,366.6797 346,366.6797 L356,366.6797 " fill="none" style="stroke:#181818;stroke-width:1.0;"/><path d="M200,366.0703 L210,366.0703 C225,366.0703 225,347.0703 240,347.0703 L250,347.0703 " fill="none" style="stroke:#181818;stroke-width:1.0;"/><rect fill="#F1F1F1" height="37.6094" rx="12.5" ry="12.5" style="stroke:#181818;stroke-width:1.5;" width="85" x="250" y="386.4844"/><a href="https://mailchimp.com" target="_top" title="https://mailchimp.com" xlink:actuate="onRequest" xlink:href="https://mailchimp.com" xlink:show="new" xlink:title="https://mailchimp.com" xlink:type="simple"><text fill="#0000FF" font-family="sans-serif" font-size="14" lengthAdjust="spacing" text-decoration="underline" textLength="65" x="260" y="411.0176">MailChimp</text></a><a href="https://us8.admin.mailchimp.com/account/client-key/" target="_top" title="https://us8.admin.mailchimp.com/account/client-key/" xlink:actuate="onRequest" xlink:href="https://us8.admin.mailchimp.com/account/client-key/" xlink:show="new" xlink:title="https://us8.admin.mailchimp.com/account/client-key/" xlink:type="simple"><text fill="#0000FF" font-family="sans-serif" font-size="14" lengthAdjust="spacing" text-decoration="underline" textLength="214" x="388" y="411.0176">Api key - Free (1000 mails/month)</text></a><path d="M335,405.2891 L345,405.2891 C360,405.2891 360,405.2891 375,405.2891 L385,405.2891 " fill="none" style="stroke:#181818;stroke-width:1.0;"/><path d="M200,366.0703 L210,366.0703 C225,366.0703 225,405.2891 240,405.2891 L250,405.2891 " fill="none" style="stroke:#181818;stroke-width:1.0;"/><rect fill="#F1F1F1" height="37.6094" rx="12.5" ry="12.5" style="stroke:#181818;stroke-width:1.5;" width="62" x="250" y="444.0938"/><text fill="#000000" font-family="sans-serif" font-size="14" lengthAdjust="spacing" textLength="42" x="260" y="468.627">Github</text><rect fill="#F1F1F1" height="37.6094" rx="12.5" ry="12.5" style="stroke:#181818;stroke-width:1.5;" width="111" x="362" y="444.0938"/><text fill="#000000" font-family="sans-serif" font-size="14" lengthAdjust="spacing" textLength="91" x="372" y="468.627">Github actions</text><path d="M312,462.8984 L322,462.8984 C337,462.8984 337,462.8984 352,462.8984 L362,462.8984 " fill="none" style="stroke:#181818;stroke-width:1.0;"/><path d="M200,366.0703 L210,366.0703 C225,366.0703 225,462.8984 240,462.8984 L250,462.8984 " fill="none" style="stroke:#181818;stroke-width:1.0;"/><path d="M76,337.2656 L86,337.2656 C101,337.2656 101,366.0703 116,366.0703 L126,366.0703 " fill="none" style="stroke:#181818;stroke-width:1.0;"/><rect fill="#F1F1F1" height="37.6094" rx="12.5" ry="12.5" style="stroke:#181818;stroke-width:1.5;" width="51" x="126" y="501.7031"/><text fill="#000000" font-family="sans-serif" font-size="14" lengthAdjust="spacing" textLength="31" x="136" y="526.2363">Build</text><rect fill="#F1F1F1" height="37.6094" rx="12.5" ry="12.5" style="stroke:#181818;stroke-width:1.5;" width="87" x="227" y="501.7031"/><a href="https://nuke.build/" target="_top" title="https://nuke.build/" xlink:actuate="onRequest" xlink:href="https://nuke.build/" xlink:show="new" xlink:title="https://nuke.build/" xlink:type="simple"><text fill="#0000FF" font-family="sans-serif" font-size="14" lengthAdjust="spacing" text-decoration="underline" textLength="67" x="237" y="526.2363">Nuke Build</text></a><path d="M177,520.5078 L187,520.5078 C202,520.5078 202,520.5078 217,520.5078 L227,520.5078 " fill="none" style="stroke:#181818;stroke-width:1.0;"/><path d="M76,337.2656 L86,337.2656 C101,337.2656 101,520.5078 116,520.5078 L126,520.5078 " fill="none" style="stroke:#181818;stroke-width:1.0;"/><rect fill="#F1F1F1" height="37.6094" rx="12.5" ry="12.5" style="stroke:#181818;stroke-width:1.5;" width="41" x="126" y="559.3125"/><text fill="#000000" font-family="sans-serif" font-size="14" lengthAdjust="spacing" textLength="21" x="136" y="583.8457">IaC</text><rect fill="#F1F1F1" height="37.6094" rx="12.5" ry="12.5" style="stroke:#181818;stroke-width:1.5;" width="62" x="217" y="559.3125"/><a href="https://www.pulumi.com/" target="_top" title="https://www.pulumi.com/" xlink:actuate="onRequest" xlink:href="https://www.pulumi.com/" xlink:show="new" xlink:title="https://www.pulumi.com/" xlink:type="simple"><text fill="#0000FF" font-family="sans-serif" font-size="14" lengthAdjust="spacing" text-decoration="underline" textLength="42" x="227" y="583.8457">Pulumi</text></a><a href="https://www.pulumi.com/registry/packages/azure/api-docs/appservice/functionapp/" target="_top" title="https://www.pulumi.com/registry/packages/azure/api-docs/appservice/functionapp/" xlink:actuate="onRequest" xlink:href="https://www.pulumi.com/registry/packages/azure/api-docs/appservice/functionapp/" xlink:show="new" xlink:title="https://www.pulumi.com/registry/packages/azure/api-docs/appservice/functionapp/" xlink:type="simple"><text fill="#0000FF" font-family="sans-serif" font-size="14" lengthAdjust="spacing" text-decoration="underline" textLength="84" x="332" y="574.041">App Function</text></a><path d="M279,578.1172 L289,578.1172 C304,578.1172 304,568.3125 319,568.3125 L329,568.3125 " fill="none" style="stroke:#181818;stroke-width:1.0;"/><a href="https://www.pulumi.com/templates/static-website/azure/" target="_top" title="https://www.pulumi.com/templates/static-website/azure/" xlink:actuate="onRequest" xlink:href="https://www.pulumi.com/templates/static-website/azure/" xlink:show="new" xlink:title="https://www.pulumi.com/templates/static-website/azure/" xlink:type="simple"><text fill="#0000FF" font-family="sans-serif" font-size="14" lengthAdjust="spacing" text-decoration="underline" textLength="90" x="332" y="593.6504">Static Website</text></a><path d="M279,578.1172 L289,578.1172 C304,578.1172 304,587.9219 319,587.9219 L329,587.9219 " fill="none" style="stroke:#181818;stroke-width:1.0;"/><path d="M167,578.1172 L177,578.1172 C192,578.1172 192,578.1172 207,578.1172 L217,578.1172 " fill="none" style="stroke:#181818;stroke-width:1.0;"/><path d="M76,337.2656 L86,337.2656 C101,337.2656 101,578.1172 116,578.1172 L126,578.1172 " fill="none" style="stroke:#181818;stroke-width:1.0;"/><rect fill="#F1F1F1" height="37.6094" rx="12.5" ry="12.5" style="stroke:#181818;stroke-width:1.5;" width="115" x="126" y="616.9219"/><text fill="#000000" font-family="sans-serif" font-size="14" lengthAdjust="spacing" textLength="95" x="136" y="641.4551">Documentation</text><text fill="#000000" font-family="sans-serif" font-size="14" lengthAdjust="spacing" textLength="21" x="294" y="631.6504">MD</text><path d="M241,635.7266 L251,635.7266 C266,635.7266 266,625.9219 281,625.9219 L291,625.9219 " fill="none" style="stroke:#181818;stroke-width:1.0;"/><a href="https://plantuml.com/" target="_top" title="https://plantuml.com/" xlink:actuate="onRequest" xlink:href="https://plantuml.com/" xlink:show="new" xlink:title="https://plantuml.com/" xlink:type="simple"><text fill="#0000FF" font-family="sans-serif" font-size="14" lengthAdjust="spacing" text-decoration="underline" textLength="54" x="294" y="651.2598">Plantuml</text></a><path d="M241,635.7266 L251,635.7266 C266,635.7266 266,645.5313 281,645.5313 L291,645.5313 " fill="none" style="stroke:#181818;stroke-width:1.0;"/><path d="M76,337.2656 L86,337.2656 C101,337.2656 101,635.7266 116,635.7266 L126,635.7266 " fill="none" style="stroke:#181818;stroke-width:1.0;"/><!--MD5=[6997a9c4e47b1ab032e27adbcbb2711d]
@startmindmap "System overview"
* System
** Git
** .NET c#
** Docker
** dev container
** Services
*** [[CLOUDFLARE https://www.cloudflare.com/]]
***_ CAPTCHA
*** Azure
****_ App Function
****_ Static Website
****_ DNS
*** [[https://mailchimp.com MailChimp]]
****_ [[https://us8.admin.mailchimp.com/account/client-key/ Api key - Free (1000 mails/month)]]
*** Github
**** Github actions
** Build
*** [[https://nuke.build/ Nuke Build]]
** IaC
*** [[https://www.pulumi.com/ Pulumi]]
****_ [[https://www.pulumi.com/registry/packages/azure/api-docs/appservice/functionapp/ App Function]]
****_ [[https://www.pulumi.com/templates/static-website/azure/ Static Website]]

** Documentation
***_ MD
***_ [[https://plantuml.com/ Plantuml]]

@endmindmap

PlantUML version 1.2022.7(Mon Aug 22 19:01:30 CEST 2022)
(GPL source distribution)
Java Runtime: Java(TM) SE Runtime Environment
JVM: Java HotSpot(TM) Client VM
Default Encoding: Cp1252
Language: en
Country: US
--></g></svg>